<?xml version="1.0" standalone="no"?>
<!DOCTYPE svg PUBLIC "-//W3C//DTD SVG 20010904//EN" "http://www.w3.org/TR/2001/REC-SVG-20010904/DTD/svg10.dtd">
<!-- Created using Karbon, part of Calligra: http://www.calligra.org/karbon -->
<svg xmlns="http://www.w3.org/2000/svg" xmlns:xlink="http://www.w3.org/1999/xlink" width="816pt" height="323pt">
<defs/>
<g id="layer0">
  <path id="shape0" transform="matrix(0.125 0 0 -0.125 29.298 257.168)" fill="#f6f7fc" d="M1230.62 1891.34C911.616 1842.34 649.616 1712.34 430.616 1492.34C312.616 1373.34 224.616 1248.34 150.616 1094.34C85.6164 959.343 53.6164 862.343 23.6164 714.343C-16.3836 515.343 -4.3836 220.343 50.6164 35.3431C61.6164 -3.65691 62.6164 5.34309 68.6164 157.343C76.6164 391.343 107.616 541.343 185.616 734.343C360.616 1161.34 724.616 1472.34 1155.62 1563.34C1260.62 1585.34 1487.62 1588.34 1595.62 1568.34C2122.62 1473.34 2552.62 1036.34 2675.62 468.343C2700.62 354.343 2718.62 139.343 2709.62 58.3431C2699.62 -39.6569 2719.62 -9.65691 2746.62 114.343C2767.62 209.343 2770.62 247.343 2770.62 432.343C2770.62 615.343 2767.62 655.343 2747.62 746.343C2617.62 1325.34 2203.62 1753.34 1655.62 1872.34C1582.62 1888.34 1294.62 1901.34 1230.62 1891.34Z"/>
  <path id="shape1" transform="matrix(0.125 0 0 -0.125 57.7911 388.229)" fill="#f6f7fc" d="M947.671 2456.83C483.671 2353.83 139.671 2001.83 26.6712 1515.83C-1.3288 1394.83 -8.3288 1178.83 10.6712 1049.83C121.671 328.831 785.671 -136.169 1458.67 35.8314C1752.67 110.831 1956.67 249.831 2105.67 475.831C2275.67 733.831 2348.67 961.831 2348.67 1240.83C2348.67 1597.83 2219.67 1904.83 1968.67 2148.83C1816.67 2295.83 1659.67 2387.83 1466.67 2441.83C1336.67 2477.83 1076.67 2485.83 947.671 2456.83ZM1403.67 2250.83C1563.67 2222.83 1685.67 2178.83 1819.67 2099.83L1896.67 2053.83L1890.67 1892.83C1887.67 1803.83 1883.67 1728.83 1881.67 1726.83C1880.67 1725.83 1840.67 1748.83 1794.67 1779.83C1584.67 1919.83 1382.67 1972.83 1129.67 1953.83C890.671 1936.83 672.671 1811.83 546.671 1617.83C458.671 1482.83 426.671 1358.83 426.671 1142.83C426.671 976.831 441.671 906.831 505.671 775.831C544.671 693.831 564.671 667.831 646.671 584.831C725.671 506.831 757.671 482.831 827.671 448.831C960.671 383.831 1018.67 371.831 1192.67 371.831C1321.67 372.831 1356.67 375.831 1441.67 398.831C1562.67 430.831 1696.67 494.831 1800.67 569.831L1877.67 624.831L1877.67 440.831C1877.67 318.831 1873.67 255.831 1867.67 255.831C1861.67 255.831 1844.67 244.831 1829.67 230.831C1759.67 165.831 1574.67 95.8314 1406.67 71.8314C792.671 -19.1686 245.671 311.831 103.671 858.831C15.6712 1196.83 60.6712 1492.83 242.671 1771.83C405.671 2021.83 680.671 2197.83 991.671 2249.83C1103.67 2268.83 1296.67 2268.83 1403.67 2250.83Z"/>
  <path id="shape2" transform="matrix(0.125 0 0 -0.125 718.75 375)" fill="#f6f7fc" d="M1015 2143C1000 2111 926 1955 850 1795C774 1636 552 1168 356 757C160 345 0 7 0 4C0 2 84 0 188 0L376 0L440 142C476 220 532 343 566 414L626 545L1049 545L1473 545L1594 275L1716 5L1907 2L2099 0L2033 137C1997 213 1945 322 1918 380C1548 1156 1084 2132 1074 2157C1066 2174 1056 2191 1051 2194C1046 2198 1029 2174 1015 2143ZM1229 1092C1290 959 1340 845 1340 840C1340 834 1234 830 1050 830C891 830 760 832 760 835C760 838 810 950 871 1083C932 1216 995 1363 1011 1410C1027 1457 1043 1502 1046 1510C1050 1519 1066 1486 1085 1430C1103 1378 1167 1226 1229 1092Z"/>
  <path id="shape3" transform="matrix(0.125 0 0 -0.125 527.993 125)" fill="#f6f7fc" d="M11.0566 34C-8.94335 3 -0.943352 -9 28.0566 9C42.0566 18 51.0566 19 59.0566 11C65.0566 5 78.0566 0 89.0566 0C106.057 0 106.057 2 86.0566 30C60.0566 67 34.0566 68 11.0566 34Z"/>
  <path id="shape4" transform="matrix(0.125 0 0 -0.125 389.323 158.75)" fill="#f6f7fc" d="M70.4198 163C44.4198 109 16.4198 50 9.41984 33C-4.58016 1 -4.58016 0 20.4198 0C37.4198 0 49.4198 9 60.4198 30C74.4198 57 80.4198 60 124.42 60C169.42 60 174.42 58 184.42 30C191.42 7 200.42 0 219.42 0C234.42 0 245.42 2 245.42 5C245.42 14 127.42 260 122.42 260C120.42 260 96.4198 216 70.4198 163ZM145.42 113C145.42 106 134.42 100 120.42 100C91.4198 100 91.4198 100 107.42 135C118.42 160 120.42 161 132.42 144C139.42 134 145.42 120 145.42 113Z"/>
  <path id="shape5" transform="matrix(0.125 0 0 -0.125 454.046 159.843)" fill="#f6f7fc" d="M66.6322 248.743C-8.36781 208.743 -23.3678 100.743 38.6322 39.7434C115.632 -37.2566 257.632 4.74345 257.632 104.743L257.632 138.743L202.632 138.743C154.632 138.743 147.632 136.743 147.632 118.743C147.632 102.743 154.632 98.7434 177.632 98.7434C197.632 98.7434 207.632 93.7434 207.632 83.7434C207.632 51.7434 120.632 35.7434 84.6322 62.7434C42.6322 94.7434 42.6322 172.743 85.6322 204.743C106.632 220.743 169.632 222.743 184.632 207.743C196.632 195.743 237.632 204.743 237.632 219.743C237.632 236.743 172.632 268.743 137.632 268.743C118.632 267.743 86.6322 259.743 66.6322 248.743Z"/>
  <path id="shape6" transform="matrix(0.125 0 0 -0.125 650.047 159.942)" fill="#f6f7fc" d="M64.6272 250.537C47.6272 240.537 25.6272 220.537 16.6272 206.537C-5.37282 173.537 -5.37282 96.5374 15.6272 64.5374C52.6272 8.53738 134.627 -16.4626 194.627 11.5374C212.627 19.5374 219.627 30.5374 219.627 51.5374C219.627 79.5374 219.627 79.5374 189.627 64.5374C119.627 28.5374 49.6272 63.5374 49.6272 134.537C49.6272 204.537 132.627 243.537 194.627 203.537C219.627 187.537 219.627 187.537 219.627 216.537C219.627 238.537 212.627 249.537 194.627 257.537C156.627 275.537 98.6272 271.537 64.6272 250.537Z"/>
  <path id="shape7" transform="matrix(0.125 0 0 -0.125 758.75 158.75)" fill="#f6f7fc" d="M101 228C93 210 67 153 43 102C19 51 0 7 0 4C0 2 11 0 26 0C45 0 54 7 61 30C71 58 76 60 121 60C165 60 171 57 185 30C196 9 208 0 225 0C250 0 250 1 236 33C198 120 128 260 122 260C118 260 108 245 101 228ZM150 108C150 103 139 100 125 100C96 100 96 99 111 137L122 165L135 140C143 126 149 112 150 108Z"/>
  <path id="shape8" transform="matrix(0.125 0 0 -0.125 525 158.75)" fill="#f6f7fc" d="M0 125L0 0L75 0C143 0 150 2 150 20C150 38 143 40 94 40L39 40L42 78L45 115L98 118C142 121 151 124 148 138C146 151 132 156 92 158C45 161 40 163 40 185C40 207 45 209 92 212C133 214 146 219 148 233C151 248 142 250 76 250L0 250Z"/>
  <path id="shape9" transform="matrix(0.125 0 0 -0.125 582.5 160.25)" fill="#f6f7fc" d="M0 137C0 20 1 12 20 12C37 12 39 20 42 89L45 166L133 83L220 0L220 131C220 255 219 262 200 262C182 262 180 255 180 186L180 110L96 186C50 228 10 262 6 262C3 262 0 206 0 137Z"/>
  <path id="shape10" transform="matrix(0.125 0 0 -0.125 717.5 158.75)" fill="#f6f7fc" d="M0 125C0 7 1 0 20 0C39 0 40 7 40 125C40 243 39 250 20 250C1 250 0 243 0 125Z"/>
  <path id="shape11" transform="matrix(0.125 0 0 -0.125 563.281 381.75)" fill="#f6f7fc" d="M583.75 1460C296.75 1399 94.75 1214 21.75 945C-7.25 837 -7.25 631 21.75 521C56.75 394 105.75 311 207.75 208C282.75 133 313.75 110 383.75 76C511.75 14 582.75 0 753.75 0C880.75 1 909.75 4 986.75 28C1035.75 42 1091.75 63 1111.75 73L1148.75 92L1145.75 274L1142.75 456L1094.75 411C1035.75 356 979.75 326 888.75 303C799.75 279 757.75 280 659.75 304C559.75 329 509.75 358 445.75 429C292.75 596 301.75 913 463.75 1075C566.75 1178 711.75 1214 878.75 1179C965.75 1160 1037.75 1126 1097.75 1073L1143.75 1032L1143.75 1213L1143.75 1393L1116.75 1408C1100.75 1415 1057.75 1432 1018.75 1444C929.75 1473 686.75 1481 583.75 1460Z"/>
  <path id="shape12" transform="matrix(0.125 0 0 -0.125 382.512 381.906)" fill="#f6f7fc" d="M6.90156 1428.25C-4.09844 1418.25 -1.09844 679.25 9.90156 580.25C31.9016 384.25 91.9016 242.25 190.902 151.25C256.902 89.25 326.902 53.25 437.902 23.25C549.902 -7.75 819.902 -7.75 932.902 23.25C1161.9 86.25 1287.9 228.25 1338.9 482.25C1357.9 574.25 1359.9 619.25 1359.9 1004.25L1359.9 1425.25L1201.9 1425.25L1042.9 1425.25L1033.9 963.25C1023.9 509.25 1023.9 499.25 1000.9 447.25C950.902 334.25 859.902 290.25 679.902 291.25C537.902 291.25 472.902 313.25 411.902 379.25C337.902 459.25 335.902 470.25 331.902 983.25L328.902 1435.25L170.902 1435.25C83.9016 1435.25 9.90156 1432.25 6.90156 1428.25Z"/>
 </g>
</svg>
